<svg width="438" height="712" fill="none" xmlns="http://www.w3.org/2000/svg"><g clip-path="url(#a)"><path d="M278.351 60.0581H46.9426c-23.4134 0-42.39377 19.0077-42.39377 42.4549v566.908c0 23.447 18.98037 42.455 42.39377 42.455H278.351c23.413 0 42.393-19.008 42.393-42.455V102.513c0-23.4472-18.98-42.4549-42.393-42.4549Z" fill="url(#b)"/><path opacity=".9" d="M278.352 60.0581H96.1621V614.664c0 14.556 5.7739 28.515 16.0509 38.807 10.277 10.292 24.216 16.074 38.751 16.074h169.782V102.513c0-11.2597-4.467-22.0583-12.417-30.0201-7.951-7.9619-18.734-12.4348-29.977-12.4348Z" fill="url(#c)"/><path d="M3.30878 270.469h1.24079V191.15H3.30878c-.87754 0-1.71914.349-2.33966.971C.348603 192.742 0 193.585 0 194.464v72.691c0 .879.348603 1.722.96912 2.343.62052.621 1.46212.971 2.33966.971Z" fill="#ACADBD"/><path d="M119.942 74.9692H55.4212c-21.4719 0-38.8782 17.4315-38.8782 38.9338v72.195c0 21.502 17.4063 38.934 38.8782 38.934h64.5208c21.472 0 38.879-17.432 38.879-38.934v-72.195c0-21.5023-17.407-38.9338-38.879-38.9338Z" fill="url(#d)"/><path d="M119.944 85.3237H55.423c-15.7612 0-28.5382 12.7955-28.5382 28.5793v72.194c0 15.784 12.777 28.58 28.5382 28.58h64.521c15.761 0 28.539-12.796 28.539-28.58v-72.194c0-15.7838-12.778-28.5793-28.539-28.5793Z" fill="#CCCFDE"/><path d="M117.669 177.275c15.076 0 27.297-12.239 27.297-27.337 0-15.097-12.221-27.336-27.297-27.336s-27.2979 12.239-27.2979 27.336c0 15.098 12.2219 27.337 27.2979 27.337Z" fill="#fff"/><path d="M117.669 171.477c11.878 0 21.507-9.643 21.507-21.539 0-11.895-9.629-21.538-21.507-21.538-11.878 0-21.5069 9.643-21.5069 21.538 0 11.896 9.6289 21.539 21.5069 21.539Z" fill="#161621"/><path d="M117.668 165.471c8.566 0 15.51-6.954 15.51-15.532 0-8.579-6.944-15.533-15.51-15.533-8.566 0-15.51 6.954-15.51 15.533 0 8.578 6.944 15.532 15.51 15.532Z" fill="#1E1E2E"/><path d="M117.668 158.429c4.683 0 8.479-3.801 8.479-8.491 0-4.689-3.796-8.491-8.479-8.491-4.682 0-8.479 3.802-8.479 8.491 0 4.69 3.797 8.491 8.479 8.491Z" fill="#0F0F17"/><path d="M58.9381 143.518c15.0759 0 27.2974-12.239 27.2974-27.336 0-15.098-12.2215-27.3373-27.2974-27.3373-15.076 0-27.2975 12.2393-27.2975 27.3373 0 15.097 12.2215 27.336 27.2975 27.336Z" fill="#fff"/><path d="M58.9368 137.72c11.878 0 21.5071-9.643 21.5071-21.538 0-11.896-9.6291-21.5384-21.5071-21.5384-11.8781 0-21.5071 9.6424-21.5071 21.5384 0 11.895 9.629 21.538 21.5071 21.538Z" fill="#161621"/><path d="M58.9381 211.239c15.0759 0 27.2974-12.239 27.2974-27.337 0-15.097-12.2215-27.337-27.2974-27.337-15.076 0-27.2975 12.24-27.2975 27.337 0 15.098 12.2215 27.337 27.2975 27.337Z" fill="#fff"/><path d="M58.9368 205.44c11.878 0 21.5071-9.642 21.5071-21.538 0-11.895-9.6291-21.538-21.5071-21.538-11.8781 0-21.5071 9.643-21.5071 21.538 0 11.896 9.629 21.538 21.5071 21.538Z" fill="#161621"/><path d="M117.669 114.525c6.168 0 11.167-5.007 11.167-11.184 0-6.1759-4.999-11.1828-11.167-11.1828-6.167 0-11.167 5.0069-11.167 11.1828 0 6.177 5 11.184 11.167 11.184Z" fill="#A7ABC7"/><path d="M117.669 109.761c3.54 0 6.41-2.874 6.41-6.42 0-3.5453-2.87-6.4196-6.41-6.4196-3.541 0-6.411 2.8743-6.411 6.4196 0 3.546 2.87 6.42 6.411 6.42Z" fill="#EDEBE7"/><path d="M117.669 187.837c-.598 0-1.189.118-1.741.347-.552.229-1.054.564-1.476.987-.423.423-.758.926-.987 1.479-.228.552-.346 1.145-.346 1.743-.001.589.118 1.172.349 1.714.231.541.57 1.03.995 1.437.426.407.929.722 1.48.928.551.206 1.138.298 1.726.27.57 0 1.135-.112 1.662-.331.527-.219 1.005-.539 1.409-.943.403-.404.723-.883.941-1.411.218-.527.33-1.093.33-1.664.028-.588-.063-1.176-.269-1.728-.205-.552-.521-1.056-.927-1.482-.406-.426-.894-.765-1.435-.996-.541-.232-1.123-.351-1.711-.35Z" fill="#414159"/><path d="M58.9377 131.714c8.5658 0 15.5099-6.955 15.5099-15.533s-6.9441-15.532-15.5099-15.532c-8.5659 0-15.51 6.954-15.51 15.532s6.9441 15.533 15.51 15.533Z" fill="#1E1E2E"/><path d="M58.9377 124.672c4.6827 0 8.4788-3.801 8.4788-8.491 0-4.689-3.7961-8.491-8.4788-8.491s-8.4787 3.802-8.4787 8.491c0 4.69 3.796 8.491 8.4787 8.491Z" fill="#0F0F17"/><path d="M58.9377 199.435c8.5658 0 15.5099-6.954 15.5099-15.533 0-8.578-6.9441-15.532-15.5099-15.532-8.5659 0-15.51 6.954-15.51 15.532 0 8.579 6.9441 15.533 15.51 15.533Z" fill="#1E1E2E"/><path d="M58.9377 192.393c4.6827 0 8.4788-3.801 8.4788-8.491 0-4.689-3.7961-8.491-8.4788-8.491s-8.4787 3.802-8.4787 8.491c0 4.69 3.796 8.491 8.4787 8.491Z" fill="#0F0F17"/><path d="M390.644 3.31348H160.477c-21.929 0-39.706 17.80232-39.706 39.76262V608.617c0 21.96 17.777 39.763 39.706 39.763h230.167c21.929 0 39.705-17.803 39.705-39.763V43.0761c0-21.9603-17.776-39.76262-39.705-39.76262Z" fill="#161621"/><path d="M391.264 4.14194c5.015-.00007 9.98.99239 14.61 2.92032 4.63 1.92794 8.834 4.75334 12.37 8.31374 3.536 3.5604 6.334 7.7857 8.234 12.4328 1.9 4.6472 2.865 9.6246 2.837 14.6461V609.487c0 5.004-.984 9.959-2.896 14.582-1.912 4.624-4.715 8.824-8.249 12.363-3.533 3.538-7.728 6.345-12.344 8.26-4.617 1.915-9.565 2.901-14.562 2.901H159.65c-10.111 0-19.811-4.008-26.98-11.149-7.169-7.14-11.224-16.832-11.278-26.957V42.4549c0-10.1612 4.031-19.9063 11.205-27.0913 7.175-7.18512 16.906-11.22166 27.053-11.22166h231.614Zm0-4.14194H159.65c-11.244 0-22.027 4.47292-29.977 12.4348-7.951 7.9618-12.417 18.7604-12.417 30.0201V609.487c0 5.565 1.098 11.076 3.231 16.215 2.133 5.14 5.259 9.806 9.198 13.732 3.94 3.926 8.615 7.033 13.757 9.144 5.142 2.111 10.65 3.184 16.208 3.157h231.614c11.189 0 21.919-4.451 29.831-12.374 7.912-7.923 12.356-18.669 12.356-29.874V42.4549c.028-5.5655-1.044-11.0815-3.151-16.2311-2.108-5.1497-5.212-9.8315-9.132-13.7766-3.92-3.94501-8.58-7.07549-13.712-9.21158C402.325 1.09953 396.822-.00006686 391.264 0Z" fill="#989AAD"/><mask id="e" style="mask-type:alpha" maskUnits="userSpaceOnUse" x="131" y="16" width="288" height="619"><path d="M418.976 44.7334V607.209c0 7.305-2.898 14.311-8.056 19.477-5.158 5.165-12.154 8.067-19.448 8.067H159.443c-7.313 0-14.331-2.895-19.521-8.054-5.191-5.16-8.135-12.166-8.19-19.49V44.7334c0-7.36 2.92-14.4186 8.117-19.6229 5.197-5.2043 12.245-8.1281 19.594-8.1281h39.085c1.629.0518 3.178.7231 4.33 1.8772 1.152 1.1541 1.823 2.7044 1.874 4.3357v2.8994c-.027 1.4315.231 2.8542.759 4.1848.528 1.3305 1.316 2.5423 2.317 3.5643 1.001 1.022 2.196 1.8339 3.514 2.388 1.319.5541 2.734.8393 4.164.839h119.737c2.906 0 5.694-1.1564 7.75-3.2148 2.055-2.0584 3.21-4.8502 3.21-7.7613v-2.8994c.052-1.6313.722-3.1816 1.874-4.3357 1.153-1.1541 2.701-1.8254 4.33-1.8772h39.085c3.629-.0001 7.223.7192 10.573 2.1163 3.351 1.3972 6.392 3.4446 8.949 6.0242 2.556 2.5797 4.578 5.6406 5.948 9.0063 1.37 3.3658 2.061 6.9697 2.034 10.6042Z" fill="#36393F"/></mask><g mask="url(#e)"><path d="M418.976 44.7334V607.209c0 7.305-2.898 14.311-8.056 19.477-5.158 5.165-12.154 8.067-19.448 8.067H159.443c-7.313 0-14.331-2.895-19.521-8.054-5.191-5.16-8.135-12.166-8.19-19.49V44.7334c0-7.36 2.92-14.4186 8.117-19.6229 5.197-5.2043 12.245-8.1281 19.594-8.1281h39.085c1.629.0518 3.178.7231 4.33 1.8772 1.152 1.1541 1.823 2.7044 1.874 4.3357v2.8994c-.027 1.4315.231 2.8542.759 4.1848.528 1.3305 1.316 2.5423 2.317 3.5643 1.001 1.022 2.196 1.8339 3.514 2.388 1.319.5541 2.734.8393 4.164.839h119.737c2.906 0 5.694-1.1564 7.75-3.2148 2.055-2.0584 3.21-4.8502 3.21-7.7613v-2.8994c.052-1.6313.722-3.1816 1.874-4.3357 1.153-1.1541 2.701-1.8254 4.33-1.8772h39.085c3.629-.0001 7.223.7192 10.573 2.1163 3.351 1.3972 6.392 3.4446 8.949 6.0242 2.556 2.5797 4.578 5.6406 5.948 9.0063 1.37 3.3658 2.061 6.9697 2.034 10.6042Z" fill="#292841"/><g clip-path="url(#f)"><rect x="131.01" y="16.6445" width="289.393" height="518.917" rx="8" fill="#292841"/><path d="M188.848 69.8093c0-2.0757.88-3.0744 2.112-3.0744.802 0 1.252.1371 1.838.4113v4.0534c-.625.8028-1.29 1.312-2.151 1.312-1.036 0-1.799-.8616-1.799-2.7023Zm-2.366.137c0 3.1919 1.584 4.6605 3.559 4.6605 1.31 0 2.229-.7049 2.894-1.5078l.196 1.312h2.014V60.2729l-2.347.3721v4.5626c-.567-.1959-1.29-.3525-2.19-.3525-2.19 0-4.126 1.5665-4.126 5.0912ZM203.221 67.0874l-.372-2.3302c-1.466.0783-2.405.9986-3.031 2.0952l-.293-1.8994h-1.995v9.458h2.347v-5.4242c.684-1.0182 1.877-1.8015 3.344-1.8994ZM209.529 71.8066c-.646.6266-1.408 1.0183-2.21 1.0183-.723 0-1.153-.4113-1.153-1.0966 0-.9008.645-1.7036 3.363-2.0365v2.1148Zm2.346 2.6044v-6.4816c0-2.2715-1.212-3.1722-3.656-3.1722-1.506 0-2.66.3329-3.755.7637l.294 1.8798c1.016-.4504 2.053-.7637 3.148-.7637 1.036 0 1.623.3917 1.623 1.4099v.2742c-3.813.372-5.69 1.3707-5.69 3.6617 0 1.6449 1.075 2.624 2.678 2.624 1.408 0 2.386-.6266 3.149-1.4295l.195 1.2337h2.014ZM226.621 64.953h-2.248l-1.623 6.2466-1.701-6.2466h-2.073l-1.701 6.2662-1.662-6.4033-2.386.3133 2.816 9.3014h2.151l1.701-6.2466 1.74 6.2466h2.151l2.835-9.4776ZM230.838 62.0353c0-.8028-.626-1.3707-1.388-1.3707-.782 0-1.408.5679-1.408 1.3707 0 .7833.626 1.3316 1.408 1.3316.762 0 1.388-.5483 1.388-1.3316Zm-.234 12.3757v-9.458h-2.347v9.458h2.347ZM241.142 74.411v-6.8145c0-1.7623-.939-2.8393-2.698-2.8393-1.271 0-2.269.6853-3.149 1.5274l-.215-1.3316h-1.994v9.458h2.346v-6.3837c.685-.7245 1.428-1.1945 2.151-1.1945.861 0 1.213.5679 1.213 1.3903v6.1879h2.346ZM248.616 68.0273c0 1.0379-.626 1.8016-1.662 1.8016-1.017 0-1.643-.7442-1.643-1.7232 0-1.0379.606-1.8407 1.643-1.8407.997 0 1.662.7637 1.662 1.7623Zm3.344 6.7753c0-1.449-1.213-2.0561-3.149-2.3302l-1.212-.1175c-1.466-.2154-1.76-.2937-1.76-.607 0-.1567.157-.3329.391-.5092.235.0392.489.0588.763.0588 2.034 0 3.774-1.2141 3.774-3.2506 0-.4308-.078-.8616-.254-1.2336l1.72-.1175-.313-1.8799-2.307.8225c-.684-.5679-1.584-.8812-2.679-.8812-2.112 0-3.793 1.2728-3.793 3.3485 0 1.2532.665 2.2323 1.779 2.761-.782.47-1.193.9791-1.193 1.5078 0 .372.176.7245.548 1.0182-1.173.6658-1.779 1.3512-1.779 2.2324 0 1.5665 1.935 2.3498 4.497 2.3498 2.737 0 4.967-1.1358 4.967-3.1723Zm-4.811 1.782c-1.779 0-2.62-.5092-2.62-1.2141 0-.4895.313-.9399.997-1.4295.47.0979.763.1567 1.408.235l1.271.1567c1.173.1762 1.584.4699 1.584.9791 0 .7049-.958 1.2728-2.64 1.2728ZM258.366 69.9072v-2.2715h-5.084v2.2715h5.084ZM267.586 73.6865l-.313-2.017c-.86.6658-1.662.9008-2.483.9008-1.369 0-2.444-.9399-2.444-2.8981 0-1.8798.977-2.8785 2.366-2.8785.938 0 1.681.3133 2.444.8812l.332-2.1149c-.684-.4308-1.662-.8028-2.894-.8028-2.561 0-4.614 1.684-4.614 4.9737 0 3.094 1.857 4.8563 4.477 4.8563 1.252 0 2.23-.2937 3.129-.9007ZM271.907 74.411V60.2729l-2.347.3721v13.766h2.347ZM274.35 64.953v6.7949c0 1.7819.919 2.8589 2.698 2.8589 1.252 0 2.269-.6854 3.148-1.5274l.216 1.3316h1.994v-9.458h-2.346v6.3837c-.685.7049-1.428 1.1749-2.151 1.1749-.861 0-1.213-.5483-1.213-1.3708V64.953h-2.346ZM293.38 69.4176c0-3.1722-1.564-4.6604-3.559-4.6604-1.193 0-2.072.6266-2.679 1.2532v-5.7375l-2.346.3721v13.2569c1.173.3916 2.405.6266 3.872.6266 2.815 0 4.712-1.6253 4.712-5.1109Zm-2.366.1371c0 2.154-.899 3.0548-2.386 3.0548-.664 0-.997-.0784-1.486-.2546v-4.2884c.587-.7049 1.291-1.2337 2.073-1.2337 1.056 0 1.799.9008 1.799 2.7219Z" fill="#fff"/><g clip-path="url(#g)"><path d="M275.706 95.9507h144.696V232.044H275.706V95.9507Z" fill="#5E87F9"/><path d="M445.196 175.459c-17.722-4.848-38.686 1.556-45.038 15.877-19.055-6.093-41.085 5.204-51.479 18.501h96.517v-34.378Z" fill="#6E94FF"/><path d="M254.205 154.912c11.593-1.957 25.273.623 29.448 6.405 12.437-2.447 26.828 2.134 33.623 7.471h-63.071v-13.876Z" fill="#7A9DFF"/><path d="M299.643 216.286c3.554-7.605 3.465-7.916 9.772-10.184l-8.395 12.052-1.377-1.868Z" fill="#FF707E"/><path d="m397.093 149.219-.399.356-.844.801-.311.266-.666.579c-14.836 12.764-33.846 18.145-46.727 22.014-16.611 4.981-30.425 6.449-40.774 6.493-13.458-.133-16.167-7.16-10.482-15.521l3.198-3.958 16.434-20.013.799-.979c10.838-12.853 20.565-18.635 41.041-14.187l31.136 6.76h.089c10.882 2.402 15.99 9.028 7.506 17.389Z" fill="url(#h)"/><path d="M361.249 127.56c12.437 3.069 33.757 9.295 33.757 9.295l5.152.712c-1.821-2.624-5.596-4.625-10.571-5.737h-.089l-31.136-6.76c-9.682-2.09-16.922-1.868-23.052.222 9.461-2.268 14.969-.445 25.939 2.268ZM349.079 174.881c10.927-3.291 34.29-12.586 43.351-21.659-2.132 2.135-.045-1.69-4.131.312-21.498 10.495-70.311 24.683-80.927 26.195 10.394.622 30.559-1.512 41.707-4.848Z" fill="#FFFDC4"/><path d="M399.58 136.855c-9.594-2.89-31.225-.266-55.21 7.25-25.006 7.827-44.86 18.634-50.19 26.595-.622 5.204 3.464 8.939 13.191 9.028 9.727.089 24.163-1.512 40.775-6.493 12.88-3.869 31.891-9.25 46.726-22.014l.666-.579.311-.266.844-.801.4-.356c4.93-4.892 5.241-9.161 2.487-12.364Z" fill="url(#i)"/><path d="M307.159 173.227c-1.401-4.477 16.344-14.031 39.635-21.339 23.291-7.308 43.308-9.604 44.709-5.127 1.401 4.477-16.344 14.03-39.635 21.339-23.291 7.308-43.308 9.604-44.709 5.127Z" fill="#6B3143"/><path d="M391.319 148.375c.263-.506.342-1.088.222-1.646-.1-.25-.252-.478-.444-.667l-24.029 10.318 18.033-11.874c-.784-.045-1.57-.045-2.354 0l-16.701 11.163c-.987-.137-1.989-.137-2.976 0l9.15-10.052-3.465.623-7.017 9.606c-1.422.178-3.065.49-4.886.89l5.241-9.073-3.109.756-3.465 8.628-3.287.89 2.399-8.361c-1.244.296-2.487.652-3.731 1.067l-1.155 7.916h.267l-.889.312-2.531-6.938-2.799.934 4.398 6.271-2.221.756-6.307-5.649-3.332 1.201 7.773 5.115-2.309.889-9.639-4.403-4.086 1.646 11.948 3.469-2.798 1.289-16.923-1.156c-1.421.712-2.798 1.423-4.042 2.135h19.099l-1.332.845-23.23 2.713c-1 .718-1.91 1.554-2.71 2.49l24.829-4.18c-.076.082-.132.181-.163.29-.031.108-.036.222-.014.332.037.097.097.184.174.253.077.07.17.12.27.148l-25.717 6.404c.399.534 1.199.978 2.354 1.29l25.806-7.472c1.388-.076 2.768-.255 4.13-.534l-20.52 8.228c.977-.044 2.043-.178 3.154-.311l20.031-8.45.711-.134-12.881 7.294c1.955-.4 3.998-.801 6.13-1.334l9.283-6.582 5.019-1.468c2.132-.667 4.131-1.379 5.952-2.046l7.906 1.468c2.665-.979 5.152-2.001 7.462-3.024l-12.082.222h.045l18.522-3.202c2.087-1.068 3.997-2.09 5.64-3.069l-20.476 4.537 1.333-.757 26.339-10.006Z" fill="#7A384C"/><path d="M283.964 231.808H391.63c-1.91-1.957-4.22-3.158-7.906-4.848l-8.306-1.156-3.065-.401-6.662-.934-5.064-.667-3.02-.4-1.288-.178-12.481-1.69-2.887-.4-4.708-.623-1.866-.267-3.642-.489-.888-.133-8.084-1.112-19.188-2.58-.977-.133c-.577-.044-1.156-.044-1.733 0-9.105.222-12.258 4.27-15.901 16.011Z" fill="#2347A1"/><path d="m300.131 227.538 3.376 4.269h19.677l-10.927-11.029-4.797 2.668-7.329 4.092Z" fill="#2A52C2"/><path d="m301.598 215.797.533.757c.178.177.311.444.533.711l.578.756c1.021 1.334 2.443 3.202 4.219 5.426l4.175 5.07 1.377 1.601c.489.534.933 1.112 1.422 1.69h68.534c.533-2.98.755-4.848.755-4.848.007-.464-.114-.92-.349-1.32s-.575-.728-.983-.948l-6.218-3.602h-.045v-.445c0-.178.045-.311.045-.445 0-.133.088-1.423.088-1.956v-.579c.033-.265.048-.533.045-.8.022-.057.037-.117.044-.178l.222-3.736c.043-.741-.097-1.482-.406-2.156-.31-.675-.781-1.263-1.37-1.713l-8.217-6.493-.711-.578-2.31-1.779-5.729-4.492-3.243-.445h-.044l-4.309-.667h-.044l-5.863-.845-1.688-.267-4.353-.667-2.087-.311h-.356l-1.154.177-1.511.223-3.064.489c-1.338.214-2.616.709-3.749 1.452-1.133.744-2.096 1.719-2.825 2.862l-3.376 5.204-.266.088-2.088.623-6.973 2.09-1.421.401-.933.355h-.089c-1.868.827-3.38 2.293-4.264 4.137l-2.532 5.158Z" fill="#EF6270"/><path d="M317.81 203.611c1.643-4.136 2.531-9.028 12.925-11.118l7.684-1.157-.622 6.271-14.524 9.607-5.463-3.603Z" fill="#FF707E"/><path d="m301.598 215.797.533.756c.178.178.311.445.533.712l.578.756c1.021 1.334 2.442 3.202 4.219 5.425l4.175 5.071 1.377 1.601 1.466 1.69h32.113c-.755-2.669-1.865-6.672-2.398-8.94-.087-.452-.206-.898-.356-1.334-.755-2.802-1.377-4.536 3.287-5.248l-.489-2.446-2.132-10.807-.533-2.891-.444-2.09-.71-3.558-.178-.934-4.353-.667-2.087-.311h-.356l-1.155.177-1.51.223-3.065.489c-1.337.214-2.615.708-3.748 1.452s-2.096 1.719-2.825 2.862l-3.376 5.203-.266.089-2.088.623-6.973 2.09-1.422.401-.932.355h-.089c-1.868.827-3.38 2.293-4.264 4.136l-2.532 5.115Z" fill="#E05164"/><path d="M331.179 204.234c-5.241-3.958-4.886-3.647-1.955-5.559 1.764-1.154 3.804-1.814 5.908-1.913l-3.953 7.472Z" fill="#BD3C53"/><path d="m329.847 219.622 8.572 12.186h6.44c-3.509-3.825-7.195-7.872-10.482-11.563-4.664-5.337-8.528-10.007-9.994-12.275l.445 2.891.31 2.045 4.709 6.716ZM318.831 227.138c1.774 1.663 3.643 3.222 5.596 4.67h8.04c-3.776-1.602-8.75-3.914-11.993-5.96-4.885-3.069-4.264-1.156-1.643 1.29Z" fill="#E05164"/><path d="M368.134 205.479c5.819 5.07 8.706 3.691-5.019 22.548l-3.287-2.179-9.594-10.763 12.171-15.343 5.729 5.737Z" fill="#C74153"/><path d="M366.357 154.912c-.355-1.156-8.217.178-17.633 2.98-9.416 2.802-16.701 6.004-16.39 7.16 1.955 15.655 1.644 29.531-1.155 39.182l28.649 21.614c11.992-28.908 8.35-54.525 6.529-70.936Z" fill="#FFB685"/><path d="m353.742 194.672-11.104-.178-1.199 6.493c4.353 4.359 10.704 2.624 13.947-.266 4.264 3.735 8.439 3.691 11.37.4l.089-.089c.267-1.779.533-3.558.711-5.337-4.531-1.334-13.814-1.023-13.814-1.023Z" fill="#FE9B77"/><path d="M342.638 212.106c2.754-18.813 2.132-41.45 1.777-52.835-7.195 2.401-12.348 4.803-12.081 5.781 1.954 15.655 1.643 29.531-1.155 39.182l11.459 7.872Z" fill="#FE9B77"/><path d="M366.357 154.912c-.355-1.156-8.217.178-17.633 2.98-9.417 2.802-16.701 6.004-16.39 7.16.267 2.001.489 3.958.666 5.915 10.216-1.245 24.385.356 35.134 3.647-.356-7.472-1.155-14.143-1.777-19.702Z" fill="#A8387E" style="mix-blend-mode:multiply" opacity=".4"/><path d="m355.874 131.163 5.33 1.023-1.554 2.491-3.776-3.514Z" fill="#FFCD8F"/><path d="M346.754 186.129c-.634-1.137-.488-2.427.325-2.883.814-.455 1.988.097 2.622 1.234.634 1.136.489 2.426-.325 2.882-.813.455-1.987-.097-2.622-1.233Z" fill="#543247"/><path d="M341.44 125.915s2.753-.222 3.953.712c-1.377 1.601-3.953-.712-3.953-.712Z" fill="#FFD08F"/><path d="M350.233 125.87c5.863-1.378 6.352 1.69 6.352 1.69l-6.352-1.69Z" fill="#FFFDC4"/><path d="M307.105 162.161c.311 2.135 5.064 3.514 5.064 3.514l-1.954 1.512c-4.931-.134-6.219-2.624-6.219-2.624.909-.954 1.958-1.763 3.109-2.402ZM294.492 171.412c.799 2.357 10.971.934 10.971.934l.31 1.201c-7.506 1.334-10.748.667-10.748.667s-.445-.712-.533-2.802Z" fill="#D4655B"/><path d="M331.934 149.575c.577 2.757 3.953 4.625 3.953 4.625l5.508-1.69c-1.555-2.224-2.221-5.292-2.221-5.292s-3.776 1.023-7.24 2.357Z" fill="#DC7363"/><path d="m368.312 231.719.133.089h5.596c.445-1.735.933-3.914 1.377-6.004.445-2.091.667-3.603.755-4.759v-.445c0-.178.045-.311.045-.444 0-.134.089-1.424.089-1.957v-.578c.032-.266.047-.533.044-.801.022-.057.037-.117.045-.178-1.09 3.041-2.458 5.973-4.087 8.761-1.466 2.535-2.931 4.759-3.997 6.316Z" fill="#D14658"/><path d="M310.837 205.701c3.395 4.475 7.043 8.752 10.926 12.809 4.62 4.936 9.505 9.74 13.37 13.297h4.53c-2.443-3.157-5.641-7.427-8.928-12.052-1.998-2.891-4.042-5.915-5.907-8.895-.933-1.467-1.821-2.935-2.665-4.358-.711-1.201-1.377-2.357-1.999-3.514h-.266l-2.088.623-6.973 2.09Z" fill="#CC4355"/><path d="m325.716 202.944 14.169 13.698 2.754 11.963-15.546-19.702-1.377-5.959Z" fill="#E65568"/><path d="m360.672 223.669-29.182-20.458-.533-.4c-.844-.756-1.51-.756.222 1.423l28.649 21.614.844-2.179Z" fill="#BD3C53"/><path d="m289.028 140.858 3.687-1.645c.044 0 .044-.134 0-.134l-3.687-1.645h-.044l-1.644-3.692c0-.044-.133-.044-.133 0l-1.643 3.692h-.045l-3.686 1.645c-.045 0-.045.134 0 .134l3.686 1.645h.045l1.643 3.692h.133l1.644-3.692h.044Z" fill="#FF99B9"/><path d="m415.57 198.497 3.687-1.646c.023 0 .046-.009.063-.026.016-.017.026-.039.026-.063s-.01-.046-.026-.063c-.017-.017-.04-.026-.063-.026l-3.687-1.645h-.044l-1.644-3.647c0-.089-.088-.089-.133 0l-1.643 3.647h-.045l-3.686 1.645c-.022.025-.034.056-.034.089 0 .033.012.065.034.089l3.686 1.646h.045l1.643 3.646c.045.089.133.089.133 0l1.644-3.646h.044Z" fill="#5580F9"/><path d="M307.461 151.31c5.908-5.382 10.838-7.605 10.838-7.605-5.508 1.111-9.461 2.935-10.838 7.605Z" fill="#EB9363"/><path d="m367.423 127.561 9.372 2.045c-1.11-2.134-2.354-2.535-9.372-2.045Z" fill="#FFFDC4"/><path d="M350.455 199.875c3.864 0 7.551-.089 8.706.89 1.155.978-.667 3.246-3.509 5.381-1.244.934-1.821 1.023-4.797-1.601-2.177-1.868-3.376-4.714-.4-4.67Z" fill="#C74153"/><path d="m352.055 200.053-3.243.534c-.444.934.533 2.668 2.043 3.958 2.976 2.624 3.554 2.535 4.797 1.601l1.288-1.067c-.488-1.157-2.043-4.092-4.885-5.026Z" fill="#A82C3C"/><path d="M357.829 200.231c-1.687-.4-4.486-.356-7.373-.356-1.643-.044-1.999.845-1.643 1.913l8.794.177c.489 0 .4-.978.222-1.734Z" fill="#fff"/><path d="M370.665 194.761c.889-1.557.4-4.047-1.51-5.337.109.291.153.603.129.913-.023.31-.115.612-.267.883-.152.271-.362.505-.614.687-.253.181-.542.306-.847.364-1.066.177-3.02-.223-3.864-.534-2.354-.89-5.019-.934-8.217.711-4.353-2.357-7.284-.311-11.237-.311-1.083.011-2.16-.139-3.198-.445-3.332-.978-3.287-2.579-2.532-4.269-4.753 1.112-4.531 6.182-2.443 8.405 1.244 1.557 3.553 2.269 6.618 1.513 4.797 4.091 7.151 4.358 12.792.756 4.575 3.824 8.972 3.424 11.593-1.379 0 0 2.665-.222 3.597-1.957Z" fill="#6B3143"/><path d="M355.475 198.096c4.575 3.825 8.972 3.425 11.593-1.378 0 0 4.131-.356 4.042-3.514-.533 1.245-2.709 2.446-4.753 2.001-3.286 2.669-6.795 1.868-10.082-.667 0 0-6.974 3.736-11.904-.355-5.641 1.378-9.638-1.201-8.972-4.759-1.332 2.001-.755 4.892.666 6.404 1.244 1.557 3.554 2.268 6.618 1.512 4.797 4.092 7.151 4.359 12.792.756Z" fill="#5E2737"/><path d="M359.93 187.348c-.812-.347-1.081-1.544-.599-2.674.481-1.129 1.529-1.764 2.342-1.417.812.347 1.08 1.544.599 2.674-.481 1.129-1.53 1.764-2.342 1.417Z" fill="#543247"/></g><g clip-path="url(#j)"><path fill="#F7E5BC" d="M275.706 95.9507H131.01v136.093h144.696z"/><path d="M304.993 129.24H131.068v102.581h173.925V129.24Z" fill="#F7E5BC"/><path d="M304.995 223.295v-36.739c-7.766-2.876-26.089 1.985-34.542 13.691-9.95-10.127-29.122-10.775-46.758 0-4.732-11.868-22.448-20.496-45.584-12.111-1.739-14.016-27.383-26.248-47.041-9.843v53.548h165.391c2.26-.01 4.424-.914 6.023-2.515 1.598-1.6 2.5-3.768 2.511-6.031Z" fill="#6ADBC6"/><path d="M237.892 197.614c19.173.121 35.554 9.276 43.441 34.268h-57.638l14.197-34.268Z" fill="#44C9C5"/><path d="M257.671 231.841h47.324v-22.035c-11.488 1.175-32.318 5.59-47.324 22.035Z" fill="#44C9C5"/><path d="M269.562 221.431H166.258c-6.512 6.198-6.835 10.41-6.835 10.41h117.864s-3.195-6.886-7.725-10.41Z" fill="#FAFAFA"/><path d="M271.99 225.968c.341-.285.569-.682.643-1.12.074-.439-.011-.889-.239-1.27-1.497-2.471-1.982-4.415-5.379-6.197-3.398-1.783-5.623-3.93-15.977-5.266-2.104-5.428-1.659-7.089-17.312-8.304h-43.279c-7.119 1.134-7.604 1.134-8.858 5.347-1.254 4.212-1.213 3.686-4.934 5.185-3.722 1.498-9.506 1.782-11.73 6.724-.728 1.62-1.011 2.794 3.236 10.774h95.375c2.986-1.702 5.815-3.668 8.454-5.873Z" fill="#CC4F79"/><path d="M237.892 205.553c7.483 1.296 7.199 1.296 2.144 7.25-5.056 5.955-11.488 11.463-18.728 14.42-11.325 4.618-21.032.284-26.938-6.602-8.575-10.005-12.255-15.068-5.015-15.068h48.537Z" fill="#590942"/><path d="m260.259 149.209-3.357-1.499c-.021 0-.042-.008-.057-.023-.015-.016-.024-.036-.024-.058 0-.021.009-.042.024-.057.015-.015.036-.024.057-.024l3.357-1.498c.011 0 .021-.005.029-.012.008-.008.012-.018.012-.029l1.496-3.362c0-.04.081-.04.122 0l1.496 3.362c0 .041 0 .041.041.041l3.357 1.498c.02.023.031.051.031.081 0 .03-.011.059-.031.081l-3.357 1.499h-.041l-1.496 3.362c-.041.081-.122.081-.122 0l-1.496-3.362h-.041Z" fill="#FAFAFA"/><path d="m166.016 153.949-2.184-.973c-.04 0-.04-.081 0-.081l2.184-.972c0-.01.005-.021.012-.028.008-.008.018-.012.029-.012l.97-2.188c0-.04.081-.04.081 0l.971 2.188h.041l2.184 1.012c.04 0 .04.081 0 .081l-2.184.973c0 .01-.005.021-.012.028-.008.008-.018.012-.029.012l-.971 2.187h-.081l-.97-2.187c-.041 0-.041 0-.041-.04Z" fill="#F7D78D"/><path d="M195.341 172.662c-2.912-8.101-8.009-14.015-10.435-15.108-2.427-1.094-1.821.283.444 7.129 2.266 6.845 2.306 18.065 6.513 18.146 4.206.081 3.478-10.167 3.478-10.167Z" fill="#2E64E8"/><path d="M190.002 174.809c-1.739-3.484-1.86-5.185-2.548-7.818-.364-1.418-.89-3.402-1.335-4.982 2.103 3.767 5.784 12.152 6.553 14.825.768 2.673-.931 1.418-2.67-2.025Z" fill="#1C4BBA"/><path d="M233.725 173.189c4.126-8.628 10.719-14.745 13.753-15.757 3.033-1.013 2.224.405-1.012 7.696-3.235 7.291-4.044 19.564-9.181 19.362-5.137-.203-3.56-11.301-3.56-11.301Z" fill="#2E64E8"/><path d="M218.356 150.06c4.713 0 8.534-3.827 8.534-8.547 0-4.72-3.821-8.547-8.534-8.547-4.714 0-8.535 3.827-8.535 8.547 0 4.72 3.821 8.547 8.535 8.547Z" fill="#201E2F"/><path d="M226.49 143.747c.289-2.196-3.265-4.476-7.938-5.092-4.673-.616-8.696.665-8.984 2.86-.289 2.196 3.265 4.476 7.938 5.092 4.673.616 8.696-.665 8.984-2.86Z" fill="#41314A"/><path d="M232.634 148.358c-8.818-8.263-23.298-9.316-33.248-2.147-9.95 7.17-7.887 18.35-6.269 30.623l42.106 1.215c1.739-6.683 6.188-21.387-2.589-29.691Z" fill="#4D7AE8"/><path d="m236.193 174.404-42.551-1.256c-7.806 17.175-15.572 49.134 19.496 50.147 33.45.972 30.862-29.529 23.055-48.891Z" fill="#4D7AE8"/><path d="M236.193 174.404c1.82-7.494 3.842-19.038-3.56-26.045l-.808-.689H229.6s.93 14.461.162 20.212c-.769 5.752-.486 6.36 1.254 7.129 1.739.77 3.357 1.702 3.033 9.074-.323 7.372-.768 8.344.85 17.093 1.617 8.75-.567 14.339-5.137 18.957 15.491-8.223 12.579-30.42 6.431-45.731Z" fill="#2E64E8"/><path d="M203.309 207.497c4.611 6.198 17.069 7.777 22.125.243 2.548-3.767-4.166-3.969-10.961-3.929-6.796.041-13.631.324-11.164 3.686Z" fill="#3366E0"/><path d="M220.89 175.34c.108-3.645-2.61-6.683-6.071-6.785-3.461-.103-6.354 2.768-6.462 6.413-.108 3.645 2.61 6.683 6.071 6.786 3.461.103 6.354-2.769 6.462-6.414Z" fill="#DBE7FF"/><path d="M216.933 176.167c.066-1.408-.965-2.601-2.304-2.664-1.339-.063-2.478 1.027-2.544 2.435-.066 1.408.965 2.6 2.304 2.663 1.339.064 2.478-1.026 2.544-2.434ZM207.799 163.67c2.629-5.509 12.336-4.942 14.561.445l-14.561-.445Z" fill="#201E2F"/><path d="m205.373 186.717 1.173.406 1.172.283 1.173.284 1.173.162c3.187.382 6.419-.007 9.425-1.135l1.132-.445 1.092-.527 1.092-.567 1.093-.648h.121c.347-.191.729-.312 1.123-.355.394-.042.793-.006 1.173.107s.734.301 1.041.552c.307.251.562.561.748.911.247.464.369.984.355 1.51-.015.525-.165 1.038-.436 1.488-1.298 2.105-3.107 3.847-5.258 5.063-2.149 1.234-4.526 2.021-6.986 2.313-2.46.293-4.954.085-7.332-.612-2.367-.717-4.511-2.028-6.229-3.807-.558-.581-.863-1.359-.847-2.164.015-.805.349-1.571.928-2.13.386-.354.857-.603 1.366-.723.51-.121 1.042-.109 1.546.034h.162Z" fill="#400015"/><path d="M204.078 193.279c1.334.952 2.808 1.69 4.368 2.188 2.379.696 4.873.904 7.333.612 2.46-.292 4.837-1.079 6.986-2.313 1.53-.882 2.898-2.019 4.045-3.362-1.771-1.745-3.839-3.158-6.108-4.173h-.081l-1.132.446c-3.006 1.128-6.238 1.517-9.425 1.134l-1.173-.162h-.121c-1.989 1.477-3.597 3.407-4.692 5.63Z" fill="#590942"/><path d="m225.92 188.297.121-4.091c-.686-.169-1.41-.067-2.023.284h-.121l-1.092.648-1.092.567-1.092.527-1.133.445c-3.005 1.128-6.237 1.517-9.424 1.134l-1.173-.162-1.173-.283-1.173-.284-1.173-.405h-.162c-.395-.108-.807-.135-1.213-.081l-.081 2.106c8.049 3.929 17.15 1.702 22.004-.405Z" fill="#DBE7FF"/><path d="m206.909 187.204-.364-.081-1.173-.405h-.162c-.395-.108-.807-.135-1.213-.081l-.081 2.106c.828.39 1.679.728 2.548 1.013l.445-2.552ZM221.43 189.837c1.538-.383 3.04-.898 4.49-1.54l.121-4.091c-.686-.169-1.41-.067-2.022.284h-.122l-1.092.648-1.092.567-.404.202.121 3.93Z" fill="#B5CDFF"/><path d="m224.544 180.844 6.229 3.119c.081-3.767-3.034-4.212-6.229-3.119ZM197.363 189.148l5.744-5.671c-4.368-.122-6.108 2.795-5.744 5.671ZM200.802 194.94c1.941 2.755 3.923 5.307 3.923 5.307-3.964-.324-3.923-5.307-3.923-5.307Z" fill="#3366E0"/><path d="M232.633 148.358c-8.817-8.263-23.298-9.316-33.248-2.147-4.57 3.281-6.552 7.656-7.199 12.679 5.46 4.212 6.067-3.119 8.372-10.734 8.171 6.643 20.548 6.724 28.475.81l.324 6.44c.364 6.238 4.57 6.967 8.332 3.646-.485-3.929-1.901-7.737-5.056-10.694Z" fill="#201E2F"/><path d="M205.258 158.306c1.033-1.053 1.432-2.339.89-2.872-.542-.533-1.819-.112-2.852.941-1.033 1.054-1.432 2.339-.89 2.873.541.533 1.818.111 2.852-.942Z" fill="#618AED"/><path d="M244.971 161.564c-2.195 3.159-4.156 6.476-5.865 9.924-1.012 2.106.04 2.389.364 4.941.323 2.552 1.132 1.337 2.184-2.997 1.051-4.334 1.618-5.873 2.669-8.223 1.052-2.349 2.832-6.805.648-3.645Z" fill="#1C4BBA"/><path d="M250.309 214.14c-1.982 5.307-7.24 17.701-7.24 17.701h-15.411c8.171-5.711 14.359-12.151 17.15-17.093 2.791-4.942 3.357-7.899 5.46-2.39.235.568.249 1.204.041 1.782ZM247.438 231.841c7.401-8.789 9.828-11.787 11.81-12.921 1.982-1.134 5.299-2.876 1.739 2.552-3.559 5.428-9.545 10.369-9.545 10.369h-4.004ZM196.352 231.841c-5.744-6.967-9.708-13.772-11.204-17.539-1.497-3.767-1.942-4.698-2.306-2.592-.364 2.106-1.173 3.078-.445 5.995.729 2.916 3.115 10.815 4.612 14.136h9.343ZM172.69 231.841h-2.265c-2.589-6.562-3.64-9.519-3.762-11.706-.121-2.188 2.508 5.063 6.027 11.706ZM182.114 231.882h-4.772c-1.254-9.519-1.254-11.382-.971-14.056.283-2.673 1.618-.364 2.588 4.416.735 3.309 1.791 6.538 3.155 9.64Z" fill="#BA3B66"/><path d="M162.943 213.249c4.247-6.886 8.818-10.248 14.359-13.286 5.541-3.038 6.269-4.78 2.184-6.157-4.085-1.377-7.604-.85-12.498 1.175-4.894 2.025-8.373 3.2-9.869 8.952-1.497 5.751.606 9.235 5.824 9.316Z" fill="#542113"/><path d="M164.358 206.039c2.629-11.058 4.409-19.443 6.108-26.977 1.698-7.534 3.6-11.909.687-13.245-2.912-1.337-4.489-.851-8.332 7.736-3.842 8.588-5.541 14.785-6.795 19.241-1.254 4.455-5.461 16.567 8.332 13.245Z" fill="#542113"/><path d="m158.857 188.702-2.548-.364c1.375-14.663 2.103-20.901 2.427-25.114.323-4.212-1.416-4.293-4.086-4.415-2.669-.121-3.64.972-4.813 6.481-1.173 5.509-2.588 15.068-3.114 18.835-.526 3.767-1.416 12.436-1.335 15.19.081 2.754 13.469 4.01 13.469-10.613Z" fill="#542113"/><path d="M146.48 192.389c.405-5.712-.445-20.942-.525-23.777-.081-2.836-1.092-2.512-3.519-2.593-2.427-.081-3.438 1.013-3.762 7.696-.324 6.684-.849 13.934-.768 17.296-1.747 4.734-2.41 9.801-1.942 14.826.485 5.306 1.173 6.724 2.144 8.384.97 1.661 6.755 3.524 14.156 4.253 7.402.729 8.09-.324 10.679-5.225 2.588-4.901-2.265-18.106-2.265-18.106l-14.198-2.754Z" fill="#542113"/><path d="M136.449 209.644c-1.092 2.552-3.235 8.587-5.339 14.582.238 2.092 1.235 4.022 2.801 5.426s3.592 2.183 5.693 2.189h20.75c-.04-.688-.607-10.41 1.335-16.323 0 0-22.772-11.545-25.24-5.874Z" fill="#542113"/><path d="M161.689 198.221c-4.773 3.038-6.108 4.496-7.281 6.603-1.173 2.106-2.305 2.308-6.633 2.389-4.328.081-4.409.162-5.623-4.982-1.213-5.144.607-7.331 5.299-7.129 6.229.243 17.109 1.499 14.238 3.119ZM139.888 189.351h16.017c-4.975-2.269-11.932-1.985-16.017 0ZM158.776 190.079c2.387.851 7.038 2.836 7.038 2.836-3.397-5.023-7.038-2.836-7.038-2.836ZM161.365 179.305c2.468.486 7.402 1.701 7.402 1.701-4.166-4.415-7.402-1.701-7.402-1.701ZM149.312 175.821c2.305.203 6.957.77 6.957.77-4.49-3.807-6.957-.77-6.957-.77ZM139.523 179.386c1.901-.284 5.825-.608 5.825-.608-4.368-2.39-5.825.608-5.825.608Z" fill="#4A1A0D"/><path d="M181.67 194.94c-3.721 2.836-9.263 3.403-14.561 6.117-5.299 2.714-6.229 5.59-7.685 9.559-.925 2.626-1.695 5.304-2.306 8.02 3.074-.324 3.964-1.863 5.825-5.387 4.247-6.886 8.817-10.248 14.359-13.286 4.166-2.228 5.622-3.767 4.368-5.023Z" fill="#732D1A"/><path d="m161.689 215.517 1.254-2.268c.243-.445.526-.81.769-1.215-2.63 3.524-9.506 4.253-15.411 4.658-5.905.405-10.759-1.499-11.851-7.048-.688 1.62-3.155 7.899-5.38 13.732v8.465h29.284c-.04-.688-.606-10.41 1.335-16.324Z" fill="#4A1A0D"/><path d="M171.194 165.816c.384 1.416.412 2.905.08 4.335-.768 3.686-2.507 10.855-6.188 25.599l1.82-.688c1.375-5.995 2.508-11.18 3.559-16 1.699-7.453 3.6-11.868.729-13.246ZM158.736 163.224c-.324 4.172-1.092 10.653-2.427 25.114l-1.092-.243 1.779-29.003c1.254.365 1.942 1.337 1.74 4.132Z" fill="#732D1A"/></g><path fill="#F7E5BC" d="M420.402 232.044H275.706v136.093h144.696z"/><mask id="k" style="mask-type:alpha" maskUnits="userSpaceOnUse" x="305" y="257" width="87" height="87"><ellipse cx="348.054" cy="300.58" rx="43.0179" ry="43.0799" fill="#C4C4C4"/></mask><g mask="url(#k)"><ellipse cx="348.054" cy="300.58" rx="43.0179" ry="43.0799" fill="#CFDEFF"/><path d="M396.138 358.387c-.817-2.019-2.167-3.777-3.906-5.087-1.739-1.309-3.801-2.12-5.965-2.346l-4.519-.478c-6.478-23.384-3.2-28.695-22.34-33.938l-15.493-.544s-15.742.267-21.534 8.028l8.092 26.575s-3.318 17.64-1.812 26.582l20.18-2.612 8.742 28.332c32.973-4.906 48.335-20.209 48.335-20.209l-9.78-24.303Z" fill="#CFDEFF"/><path d="M326.073 318.085c21.966 20.598 41.817 34.671 38.48 2.172l-38.48-2.172Z" fill="#B8C5FF"/><path d="M336.855 320.513c19.127 8.997 24.091 12.391 22.84 1.576l-22.84-1.576Z" fill="#5697B0"/><path d="M378.135 335.643c-2.327-9.827-4.075-14.063-13.871-17.612 2.635 6.175 3.78 18.918 3.78 18.918l10.091-1.306Z" fill="#fff"/><path d="m345.489 288.157-.7-5.433c-.235-1.773-1.027-3.424-2.262-4.715-1.235-1.292-2.848-2.157-4.606-2.47-1.931-.337-3.92.017-5.617 1.001-1.697.984-2.995 2.534-3.665 4.379-2.463 6.693-6.311 17.46-8.965 26.515-4.226 14.429 14.88 17.763 33.654 16.325 18.774-1.439 20.544-9.671 17.948-21.588-1.665-7.433-3.774-15.021-5.089-19.738-.402-1.317-1.179-2.487-2.234-3.369-1.056-.882-2.346-1.437-3.711-1.598-1.531-.178-3.078.159-4.396.958-1.319.799-2.335 2.015-2.889 3.455l-2.11 5.585-5.358.693Z" fill="#7CE4CC"/><path d="m368.758 307.883-1.333-.464-6.84 2.372-6.958.901-12.053-2.406s-6.627-10.261-6.147 1.15c.378 7.883 3.72 12.407 5.755 14.481 4.047.184 8.102.109 12.139-.226 3.047-.171 6.066-.68 9.001-1.519 2.033-2.883 5.311-8.194 6.436-14.289Z" fill="#AAFAE7"/><path opacity=".74" d="M335.232 308.464c-1.549-4.332-4.352-13.461-3.186-20.34 1.166-6.88 2.702-12.533 5.878-12.59-1.931-.337-3.92.018-5.618 1.002-1.697.983-2.994 2.534-3.665 4.379-2.463 6.693-6.312 17.462-8.966 26.517-3.789 12.886 11.092 16.909 27.749 16.595-3.614-.595-8.206-4.392-12.192-15.563Z" fill="url(#l)"/><path d="m347.425 324.03-1.34.032-1.271.022-1.993-.096-.627.081-1.001-.083c-2.027-2.004-5.369-6.529-5.747-14.413-.029-.141-.024-.288.015-.427 3.914 10.614 8.428 14.35 11.964 14.884Z" fill="#AAFAE7"/><path d="m367.115 306.682-.009 1.589c-7.316 4.791-8.504 6.115-27.348.196l-.191-1.48.816.229c15.957 4.036 19.005 4.394 26.732-.534Z" fill="#2C4661"/><path d="M338.272 312.866c2.464-.688 3.839-3.487 3.07-6.252-.769-2.766-3.389-4.451-5.853-3.763-2.463.687-3.838 3.486-3.069 6.251.768 2.766 3.389 4.451 5.852 3.764ZM370.633 307.129c.501-2.393-.199-4.564-1.563-4.851-1.365-.286-2.878 1.421-3.379 3.814-.501 2.392.199 4.564 1.563 4.85 1.365.287 2.878-1.42 3.379-3.813Z" fill="#738EFF"/><path opacity=".41" d="M351.941 302.551c-.35-.521.24-.881.709-1.083.19-.072.397-.084.594-.033.197.05.373.161.504.316l1.784 2.318c.516.713-.258.742-1.026.275-.767-.467-2.031-.941-2.565-1.793ZM359.932 303.642l.544-1.274c.095-.218.123-.46.081-.695-.043-.234-.155-.45-.321-.62l-.245-.252c-.023-.026-.052-.046-.084-.059-.033-.012-.068-.016-.102-.012-.034.005-.067.018-.096.038-.028.02-.051.047-.066.078-.333.908-.591 1.842-.772 2.792-.084 1.002.543.921 1.061.004Z" fill="#284E7A"/><path d="m352.196 288.633-6.711-.477 5.358-.693 2.111-5.585c.553-1.44 1.569-2.655 2.888-3.454 1.318-.799 2.865-1.136 4.395-.959l1.307.256c-3.187-.579-4.27 3.102-4.896 7.574-.322 2.449-.23 3.712-4.452 3.338Z" fill="#61C7C7"/><path d="M364.718 287.613c.011-1.708-1.111-3.098-2.506-3.106-1.394-.009-2.533 1.369-2.544 3.076-.01 1.708 1.112 3.098 2.506 3.107 1.395.008 2.534-1.37 2.544-3.077ZM341.1 286.59c.168-1.699-.821-3.187-2.209-3.324-1.388-.138-2.649 1.129-2.816 2.828-.168 1.699.82 3.188 2.208 3.325 1.388.137 2.649-1.129 2.817-2.829Z" fill="#21354A"/><path d="M330.474 350.589c2.907.048 6.613-.29 9.92-.434-.062-1.323.053-2.648.341-3.94.508-2.171 1.283-4.27 2.309-6.248-2.647-.224-5.859-.446-8.488-.531-.546-13.032-7.396-20.078-11.177-16.472-1.792 1.704-2.882 4.018-3.056 6.486-.096 1.996.108 5.228-.011 5.951-.331 2.38-2.008 3.093.046 7.502 1.061 2.2-.928 7.628 10.116 7.686Z" fill="#fff"/><path d="M339.538 276.034c2.696 1.705 3.374 5.867 3.589 7.539.216 1.672.601 4.668.7 5.434.099.767.344 1.018 2.898 2.175 2.555 1.157 1.489.02.326-1.317l-1.565-1.71-.7-5.434c-.196-1.483-.787-2.886-1.71-4.062-.924-1.176-2.145-2.083-3.538-2.625Z" fill="#D4FFDC"/><path d="M363.262 285.574c.967.37 1.185 2.609.224 1.742-.96-.868-1.557-2.207-.224-1.742ZM339.893 284.274c.898.38 1.125 2.688.225 1.742-.9-.946-1.628-2.198-.225-1.742Z" fill="#335A70"/><path d="M339.696 309.962c.925-.489 1-2.165.167-3.743-.832-1.578-2.257-2.46-3.182-1.97-.925.489-1 2.165-.168 3.743.833 1.578 2.258 2.46 3.183 1.97ZM370.573 305.228c.001-1.125-.438-2.038-.98-2.038-.542-.001-.983.911-.984 2.037-.001 1.125.438 2.037.98 2.038.542 0 .983-.912.984-2.037Z" fill="#B2A6FF"/><path d="M363.499 279.735c1.502 1.222 1.928 3.434.242 1.881-1.686-1.552-2.058-3.346-.242-1.881Z" fill="#D4FFDC"/></g><path fill="#EF6270" d="M420.402 368.137H275.706V504.23h144.696z"/><mask id="m" style="mask-type:alpha" maskUnits="userSpaceOnUse" x="305" y="393" width="87" height="87"><ellipse cx="348.054" cy="436.674" rx="43.0179" ry="43.0799" fill="#C4C4C4"/></mask><g mask="url(#m)"><ellipse cx="348.054" cy="436.674" rx="43.0179" ry="43.0799" fill="#CC4355"/><path d="M396.138 494.481c-.817-2.02-2.167-3.778-3.906-5.087-1.739-1.31-3.801-2.121-5.965-2.347l-4.519-.478c-6.478-23.384-3.2-28.695-22.34-33.937l-15.493-.545s-15.742.267-21.534 8.029l8.092 26.574s-3.318 17.64-1.812 26.582l20.18-2.612 8.742 28.332c32.973-4.905 48.335-20.209 48.335-20.209l-9.78-24.302Z" fill="#CFDEFF"/><path d="M326.073 454.178c21.966 20.598 41.817 34.672 38.48 2.172l-38.48-2.172Z" fill="#B8C5FF"/><path d="M336.855 456.606c19.127 8.997 24.091 12.391 22.84 1.576l-22.84-1.576Z" fill="#5697B0"/><path d="M378.135 471.736c-2.327-9.827-4.075-14.063-13.871-17.611 2.635 6.175 3.78 18.917 3.78 18.917l10.091-1.306Z" fill="#fff"/><path d="m345.489 424.251-.7-5.434c-.235-1.772-1.027-3.424-2.262-4.715-1.235-1.292-2.848-2.157-4.606-2.47-1.931-.337-3.92.018-5.617 1.001-1.697.984-2.995 2.534-3.665 4.379-2.463 6.693-6.311 17.461-8.965 26.515-4.226 14.429 14.88 17.763 33.654 16.325 18.774-1.439 20.544-9.671 17.948-21.587-1.665-7.434-3.774-15.022-5.089-19.739-.402-1.316-1.179-2.487-2.234-3.369-1.056-.882-2.346-1.437-3.711-1.598-1.531-.178-3.078.16-4.396.959-1.319.799-2.335 2.014-2.889 3.454l-2.11 5.585-5.358.694Z" fill="#7CE4CC"/><path d="m368.758 443.977-1.333-.465-6.84 2.372-6.958.901-12.053-2.406s-6.627-10.261-6.147 1.15c.378 7.883 3.72 12.408 5.755 14.481 4.047.185 8.102.109 12.139-.225 3.047-.171 6.066-.681 9.001-1.52 2.033-2.883 5.311-8.194 6.436-14.288Z" fill="#AAFAE7"/><path opacity=".74" d="M335.232 444.558c-1.549-4.333-4.352-13.461-3.186-20.341 1.166-6.88 2.702-12.532 5.878-12.589-1.931-.337-3.92.017-5.618 1.001-1.697.984-2.994 2.534-3.665 4.379-2.463 6.694-6.312 17.462-8.966 26.518-3.789 12.885 11.092 16.909 27.749 16.594-3.614-.594-8.206-4.391-12.192-15.562Z" fill="url(#n)"/><path d="m347.425 460.123-1.34.032-1.271.023-1.993-.096-.627.081-1.001-.083c-2.027-2.004-5.369-6.53-5.747-14.414-.029-.141-.024-.288.015-.427 3.914 10.614 8.428 14.35 11.964 14.884Z" fill="#AAFAE7"/><path d="m367.115 442.775-.009 1.589c-7.316 4.791-8.504 6.115-27.348.196l-.191-1.479.816.228c15.957 4.036 19.005 4.394 26.732-.534Z" fill="#2C4661"/><path d="M338.272 448.959c2.464-.687 3.839-3.486 3.07-6.252-.769-2.765-3.389-4.45-5.853-3.763-2.463.687-3.838 3.486-3.069 6.252.768 2.765 3.389 4.45 5.852 3.763ZM370.633 443.222c.501-2.392-.199-4.564-1.563-4.85-1.365-.287-2.878 1.42-3.379 3.813-.501 2.393.199 4.564 1.563 4.851 1.365.286 2.878-1.421 3.379-3.814Z" fill="#738EFF"/><path opacity=".41" d="M351.941 438.644c-.35-.521.24-.881.709-1.083.19-.072.397-.084.594-.033.197.051.373.161.504.316l1.784 2.319c.516.712-.258.741-1.026.274-.767-.467-2.031-.941-2.565-1.793ZM359.932 439.735l.544-1.274c.095-.218.123-.46.081-.694-.043-.235-.155-.451-.321-.621l-.245-.251c-.023-.027-.052-.047-.084-.059-.033-.013-.068-.017-.102-.012-.034.004-.067.017-.096.037-.028.021-.051.047-.066.079-.333.908-.591 1.841-.772 2.791-.084 1.003.543.921 1.061.004Z" fill="#284E7A"/><path d="m352.196 424.726-6.711-.477 5.358-.693 2.111-5.585c.553-1.44 1.569-2.655 2.888-3.454 1.318-.799 2.865-1.136 4.395-.959l1.307.256c-3.187-.579-4.27 3.102-4.896 7.574-.322 2.45-.23 3.712-4.452 3.338Z" fill="#61C7C7"/><path d="M364.718 423.706c.011-1.707-1.111-3.098-2.506-3.106-1.394-.008-2.533 1.369-2.544 3.077-.01 1.707 1.112 3.098 2.506 3.106 1.395.008 2.534-1.37 2.544-3.077ZM341.1 422.684c.168-1.699-.821-3.188-2.209-3.325-1.388-.137-2.649 1.129-2.816 2.828-.168 1.699.82 3.188 2.208 3.325 1.388.137 2.649-1.129 2.817-2.828Z" fill="#21354A"/><path d="M330.474 486.682c2.907.049 6.613-.289 9.92-.434-.062-1.323.053-2.648.341-3.94.508-2.17 1.283-4.269 2.309-6.248-2.647-.224-5.859-.446-8.488-.53-.546-13.033-7.396-20.079-11.177-16.473-1.792 1.705-2.882 4.019-3.056 6.487-.096 1.995.108 5.227-.011 5.951-.331 2.38-2.008 3.093.046 7.501 1.061 2.2-.928 7.628 10.116 7.686Z" fill="#fff"/><path d="M339.538 412.127c2.696 1.705 3.374 5.867 3.589 7.539.216 1.672.601 4.668.7 5.435.099.766.344 1.018 2.898 2.174 2.555 1.157 1.489.02.326-1.317l-1.565-1.71-.7-5.434c-.196-1.483-.787-2.886-1.71-4.062-.924-1.176-2.145-2.083-3.538-2.625Z" fill="#D4FFDC"/><path d="M363.262 421.667c.967.371 1.185 2.609.224 1.742-.96-.867-1.557-2.207-.224-1.742ZM339.893 420.368c.898.379 1.125 2.687.225 1.741-.9-.946-1.628-2.197-.225-1.741Z" fill="#335A70"/><path d="M339.696 446.056c.925-.49 1-2.166.167-3.744-.832-1.578-2.257-2.46-3.182-1.97-.925.49-1 2.166-.168 3.743.833 1.578 2.258 2.46 3.183 1.971ZM370.573 441.321c.001-1.125-.438-2.038-.98-2.038s-.983.912-.984 2.037c-.001 1.125.438 2.038.98 2.038s.983-.912.984-2.037Z" fill="#B2A6FF"/><path d="M363.499 415.828c1.502 1.223 1.928 3.434.242 1.881-1.686-1.552-2.058-3.345-.242-1.881Z" fill="#D4FFDC"/></g><path fill="#628BF7" d="M131.01 232.044h144.696v136.093H131.01z"/><mask id="o" style="mask-type:alpha" maskUnits="userSpaceOnUse" x="160" y="257" width="87" height="87"><ellipse cx="203.358" cy="300.58" rx="43.0179" ry="43.0799" fill="#C4C4C4"/></mask><g mask="url(#o)"><ellipse cx="203.358" cy="300.58" rx="43.0179" ry="43.0799" fill="#628BF7"/><path d="m193.883 227.052 31.898 59.896c.74 1.344 1.024 2.892.811 4.412-.213 1.52-.912 2.929-1.992 4.018l-.443.444c-5.269 5.518-11.868 9.587-19.161 11.815-7.293 2.227-15.036 2.538-22.484.903-1.082-.235-2.051-.832-2.749-1.692s-1.082-1.932-1.091-3.04l-1.477-72.319c-.147-27.36 1.182-33.424 16.688-4.437Z" fill="#33BEB5"/><path d="M224.157 295.821c1.158-1.223 1.909-2.777 2.147-4.446.238-1.669-.048-3.371-.818-4.871l-31.603-59.452c-7.532-14.05-11.667-19.965-14.029-18.93 6.054 42.001 18.459 96.721 18.459 96.721l8.566 2.07c6.551-2.282 12.472-6.082 17.278-11.092Z" fill="#33A2BE"/><path d="M216.478 269.497c-1.92-3.549-2.806-4.732-3.692-2.958-13.143-21-19.493-16.859-19.493 3.55 0 0-9.156-4.881-8.123 13.162-1.304-.353-2.688-.269-3.941.238-1.253.507-2.306 1.41-3 2.572l.444 17.747c.009.947.293 1.87.818 2.658.524.788 1.266 1.406 2.135 1.779 7.818 1.245 15.817.665 23.373-1.695 7.557-2.36 14.467-6.437 20.192-11.911.812-1.097 1.298-2.4 1.402-3.76.105-1.361-.177-2.723-.811-3.931l-9.304-17.451Z" fill="#F7E5BC"/><path d="m225.782 286.948-9.304-17.451c-1.92-3.549-2.806-4.732-3.692-2.958-13.143-21-19.493-16.859-19.493 3.55-.778-.395-1.639-.598-2.511-.592 2.511.592 2.658 3.106 4.135 8.578 1.477 5.472 2.511 10.352 2.511 10.352l23.333 9.909c1.577-1.107 3.059-2.344 4.43-3.697.812-1.097 1.298-2.4 1.402-3.76.105-1.361-.177-2.723-.811-3.931Z" fill="#F7D197"/><path d="M224.748 287.687c-11.224-12.127-21.266-16.415-44.008 16.86-.222.357-.357.762-.392 1.181-.036.419.028.841.186 1.231.159.389.407.736.725 1.011.319.275.697.47 1.105.57 7.471 1.619 15.232 1.3 22.545-.926 7.314-2.226 13.939-6.285 19.248-11.793l.443-.443 1.034-1.331c.563-1.012.782-2.181.622-3.329-.16-1.147-.69-2.212-1.508-3.031Z" fill="#242236"/><path d="m222.828 298.04-2.953-15.085c-8.27-6.803-16.983-6.951-31.604 11.387l6.055 14.346c10.274-.963 20.109-4.637 28.502-10.648Z" fill="#9E4B34"/><path d="m223.567 297.448-10.781-.887-1.477 4.141-2.658-5.768c-2.51-5.916-2.658-5.768-4.873-.74-2.215 5.029-12.11 3.254-12.11 3.254l-2.067-4.585c12.848-15.528 20.97-16.415 28.501-11.239l5.465 15.824Z" fill="#7A2F28"/><path d="m174.685 318.005 1.92-5.028c.416-.992 1.061-1.872 1.883-2.566.821-.694 1.796-1.183 2.843-1.427l7.531-1.479 29.831-.591 16.245 8.281c.66.324 1.233.802 1.67 1.394.437.592.725 1.281.84 2.008l.591 3.845 7.827 5.176c.434.281.777.682.986 1.155.21.473.278.997.195 1.507-2.067 18.043-20.527 45.551-46.223 33.276-19.198-9.169-36.919-22.48-45.485-29.283l-3.249 4.437c-.886-4.289-.147-5.915 2.658-8.134.899-.611 1.74-1.304 2.511-2.07.258-.713.408-1.461.443-2.219.738-3.401 0-4.289 3.987-5.176l12.996-3.106Z" fill="#33BEB5"/><path d="M189.01 309.28c-6.941 1.183-10.781 1.035 0 7.394 10.78 6.36 0-7.394 0-7.394Z" fill="#1E6470"/><path d="m208.06 287.835 1.181 5.324c.148.148.295.444.591.444l2.215.296-1.92-4.437v-.296l.443-3.105-2.067 1.183-.443.591Z" fill="#66251F"/><path d="m197.428 293.159 3.987.592c-1.477 2.218-3.249 1.922-3.987-.592ZM212.047 291.68l3.987-1.183c-.443 2.662-2.215 3.106-3.987 1.183Z" fill="#5E221D"/><path d="M200.086 293.899c.652 0 1.181-.927 1.181-2.07 0-1.144-.529-2.071-1.181-2.071-.653 0-1.182.927-1.182 2.071 0 1.143.529 2.07 1.182 2.07ZM214.263 291.237c.653 0 1.182-.927 1.182-2.07 0-1.144-.529-2.071-1.182-2.071-.652 0-1.181.927-1.181 2.071 0 1.143.529 2.07 1.181 2.07Z" fill="#000"/><path d="m218.102 281.624 3.249 2.514c1.181 3.254 1.625 7.838 2.806 11.684 1.181 3.845 2.806 9.612 2.067 12.866-.738 3.254-.147 3.549 1.92 7.69 2.068 4.141 5.907 8.578 4.578 13.606 2.215 3.402 1.477 5.472.886 8.578-.59 3.106-3.101 11.388-8.713 11.24-1.894 2.647-4.545 4.657-7.603 5.766s-6.38 1.264-9.527.445c-9.009-2.218-18.017-8.43-16.983-16.564-2.954-2.366-2.363-8.577-1.92-11.979.317-3.023-.141-6.076-1.329-8.873-1.034-2.958-1.034-5.916-.148-12.127-1.035-2.571-1.778-5.25-2.215-7.986l4.43-5.768 2.068 4.732c.991 1.974 1.878 3.998 2.658 6.064.743-.327 1.552-.478 2.363-.444.549-1.138 1.38-2.116 2.414-2.841 1.034-.725 2.237-1.173 3.493-1.3l8.713 1.775 1.477-4.141c4.135-.592 6.202-.592 7.679.444.782-2.339.885-4.852.295-7.247-.738-2.81-2.658-8.134-2.658-8.134Z" fill="#fff"/><path d="m212.048 304.103-3.397-.739c-1.624-.444-1.476-.592-6.054-4.437l8.713 1.775 1.476-4.141c4.135-.592 6.203-.592 7.68.444.782-2.339.884-4.852.295-7.247-.738-2.81-2.658-8.134-2.658-8.134l3.101 2.514c1.329 3.254 1.772 7.838 2.954 11.684 1.181 3.845 2.806 9.612 2.067 12.866-.738 3.254-.148 3.549 1.92 7.69 2.067 4.141 5.907 8.578 4.578 13.606 2.215 3.402 1.477 5.472.886 8.578-.591 3.106-3.101 11.388-8.713 11.24-1.895 2.647-4.545 4.657-7.603 5.766s-6.38 1.264-9.528.445c-9.008-2.218-18.016-8.43-16.983-16.564 2.806 7.691 8.713 6.212 8.713 6.212 3.589-.777 7.258-1.125 10.929-1.035 2.067-3.698 4.578-7.247 6.645-8.726 4.43-8.43 1.034-17.451-1.034-22.479l-3.987-9.318Z" fill="#D6DFFF"/><path d="M212.048 304.103c2.215.444 2.068-1.478 1.92-3.401-.081-1.451-.485-2.866-1.182-4.141l-1.476 4.141-8.713-1.775c4.578 3.845 4.43 3.993 6.054 4.437l3.397.739Z" fill="#CAD5FC"/><path d="m195.359 290.645 8.123-2.366c-.686-.389-1.443-.636-2.226-.728-.783-.091-1.577-.024-2.334.196-.757.221-1.462.591-2.074 1.088-.612.498-1.118 1.113-1.489 1.81ZM209.39 287.392l8.417-1.627c-1.342-.866-2.966-1.181-4.534-.878-1.568.303-2.959 1.2-3.883 2.505Z" fill="#CFDEFF"/><path d="M215.592 307.209c-.03.554-.254 1.079-.632 1.485-.377.405-.886.665-1.435.733-8.861 1.184-12.7-.887-14.177-2.07-.178-.168-.312-.377-.389-.61-.078-.232-.096-.48-.054-.721v-.296c4.725 1.627 11.814.887 13.438.592 1.625-.296 1.034-.74.886-1.479.311 0 .618.061.905.18.286.119.547.293.766.513.22.22.394.48.512.768.119.287.18.594.18.905Z" fill="#DE5D70"/><path d="M204.738 268.303c1.471-.706 1.636-3.427.367-6.079-1.269-2.652-3.49-4.229-4.961-3.524-1.471.706-1.635 3.428-.366 6.08 1.268 2.652 3.489 4.229 4.96 3.523Z" fill="#FF9CCD"/><path d="M205.107 262.102c-1.181-2.662-3.544-4.289-5.021-3.549-.176.091-.332.216-.459.368-.127.153-.222.329-.279.519 2.51-.148 1.181 2.81 5.759 2.662Z" fill="#FFEBF5"/><path d="M198.904 261.215c.033 1.218.283 2.42.739 3.549l.59.888c.443-.148 1.477-.444 1.92.295.443.74 1.034 2.071 2.658 2.367.4-.314.716-.72.922-1.184.206-.464.295-.972.26-1.478h-.443c-3.101 0-4.874-3.254-6.646-4.437Z" fill="#FF70B7"/><path d="M189.6 277.927c.815 0 1.477-.861 1.477-1.923s-.662-1.922-1.477-1.922c-.816 0-1.477.86-1.477 1.922 0 1.062.661 1.923 1.477 1.923ZM181.774 290.645c.815 0 1.476-.86 1.476-1.922 0-1.062-.661-1.923-1.476-1.923-.816 0-1.477.861-1.477 1.923s.661 1.922 1.477 1.922Z" fill="#F7D197"/><path d="M185.17 298.484c.437 2.305 1.029 4.577 1.772 6.803 0-1.775.738-3.846 1.92-4.289 1.181-.444 1.329-3.402 2.806-3.55l-2.068-4.732-4.43 5.768Z" fill="#A8C3FF"/><path d="M216.625 314.899c3.692 3.698 5.021 6.36 5.316 8.43-1.501-.549-2.899-1.349-4.135-2.366l-1.181-6.064Z" fill="#fff"/><path d="M202.448 285.617c3.25-.979 6.554-1.769 9.895-2.366-5.317-.591-8.27.296-9.895 2.366Z" fill="#66251F"/><path d="M205.845 291.976c.031.683.204 1.352.51 1.964.305.611.735 1.151 1.262 1.586.739.591.148-.444-.738-2.366-.886-1.923-1.329-2.367-1.034-1.184Z" fill="#C27059"/></g><path fill="#FFB869" d="M275.706 368.137H131.01V504.23h144.696z"/><mask id="p" style="mask-type:alpha" maskUnits="userSpaceOnUse" x="160" y="393" width="87" height="87"><ellipse cx="203.358" cy="436.674" rx="43.0179" ry="43.0799" fill="#C4C4C4"/></mask><g mask="url(#p)"><ellipse cx="203.358" cy="436.674" rx="43.0179" ry="43.0799" fill="#FFB869"/><path d="M181.281 450.742c5.021 17.484 25.218 29.597 41.421 18.17 16.203-11.428.114-34.853.114-34.853s8.786-22.169-13.236-27.425c-22.023-5.257-27.5 4.342-28.299 44.108Z" fill="#4D7AE8"/><path d="M213.916 437.944c-2.458 0-4.45-2.66-4.45-5.942 0-3.281 1.992-5.942 4.45-5.942s4.45 2.661 4.45 5.942c0 3.282-1.992 5.942-4.45 5.942Z" fill="#DBE7FF"/><path d="M215.824 436.514c-.628-.042-1.071-1.047-.99-2.243.081-1.197.657-2.132 1.286-2.089.628.043 1.072 1.048.99 2.244-.081 1.196-.657 2.131-1.286 2.088ZM219.051 420.918c-.295-.888-.861-1.659-1.619-2.206-.759-.548-1.668-.842-2.603-.842-.934 0-1.845.294-2.602.842-.758.547-1.324 1.318-1.62 2.206h8.444Z" fill="#201E2F"/><path d="M218.595 446.172c-4.336 1.143-9.015.114-12.894-4.114-.507-.579-1.219-.938-1.985-1.002-.767-.064-1.528.172-2.123.659-.649.441-1.098 1.121-1.247 1.892-.15.771.011 1.57.448 2.222 5.933 9.713 15.176 11.199 20.881 5.714.392-.353.683-.803.844-1.305.159-.502.183-1.038.069-1.552-.078-.437-.248-.853-.496-1.222-.249-.368-.572-.68-.947-.917-.376-.236-.797-.392-1.236-.456-.439-.065-.887-.037-1.314.081Z" fill="#590942"/><path d="M215.285 446.629c1.119.009 2.234-.145 3.309-.457h1.027v2.857s-1.712 1.257-8.102.571V448l-11.182-3.771c.004-.471.12-.934.338-1.351.219-.417.533-.777.917-1.048 0-.031.012-.06.034-.081.021-.022.05-.034.08-.034.469-.321 1.03-.482 1.598-.457.114-.114.342 0 .456 0h1.027c.114.115.228.114.228.229 0 .114.229 0 .229.114l.456.343c.675.775 1.442 1.465 2.282 2.057l1.598 1.028c.744.459 1.551.805 2.396 1.029 1.066.367 2.183.56 3.309.571Z" fill="#DBE7FF"/><path d="M201.592 441.715c0-.03.012-.059.034-.08.021-.022.05-.034.08-.034.469-.321 1.03-.482 1.598-.457.114-.114.342 0 .456 0h1.027c.114.114.228.114.228.229 0 .114.229 0 .229.114l.456.343c.359.474.781.897 1.255 1.257l-3.195 1.942-3.423-1.142c.038-.432.171-.85.387-1.225.217-.375.513-.698.868-.947Z" fill="#B5CDFF"/><path d="M185.96 414.633c4.108-9.142 11.297-10.97 23.62-7.999 2.482.555 4.867 1.479 7.075 2.743.684 3.656-4.907 4.799-15.291 1.485 3.424 6.171-3.651 17.141-15.404 3.771Z" fill="#201E2F"/><path d="m200.338 406.291.57-7.542c.051-.688-.046-1.38-.286-2.027-.24-.647-.617-1.234-1.104-1.723-.488-.488-1.074-.865-1.721-1.105-.646-.24-1.336-.338-2.024-.287-.774.044-1.526.275-2.192.675-.665.399-1.224.954-1.628 1.617-.404.663-.641 1.414-.691 2.189-.05.775.088 1.551.404 2.261l3.423 7.77 5.249-1.828Z" fill="#201E2F"/><path d="m170.67 446.629 3.423 1.257 7.189-4.685v5.828l5.933 4.685c1.247 1.026 2.273 2.294 3.018 3.727.745 1.434 1.194 3.003 1.318 4.614l.229 4.686c8.672 7.199 20.539 9.484 30.923 2.171 1.688-1.13 3.19-2.518 4.45-4.114l3.537 1.257s-7.189 30.282-19.17 35.767c-11.981 5.485-20.311 0-20.311 0-12.552-42.738-8.9-50.737-39.937-38.395l-1.484-8.685 20.882-8.113Z" fill="#EF6767"/><path d="m195.545 433.03-22.594-21.14-2.054 2.628 17.459 32.568 7.189-14.056Z" fill="#4D7AE8"/><path d="m187.329 428.231-8.9-6.285 6.846 12.342-1.255-4.8 3.309-1.257Z" fill="#3366E0"/></g></g><path fill-rule="evenodd" clip-rule="evenodd" d="M164.986 59.1646c.091-.5448-.277-1.06-.822-1.1508-.544-.0908-1.06.2772-1.15.822l-.861 5.1643H158c-.552 0-1 .4477-1 1s.448 1 1 1h3.82l-.667 4H157c-.552 0-1 .4477-1 1s.448 1 1 1h3.82l-.806 4.8357c-.091.5447.277 1.06.822 1.1507.544.0908 1.06-.2772 1.15-.8219l.861-5.1645h4.973l-.806 4.8357c-.091.5447.277 1.06.822 1.1507.544.0908 1.06-.2772 1.15-.8219l.861-5.1645H174c.552 0 1-.4477 1-1s-.448-1-1-1h-3.82l.667-4H175c.552 0 1-.4477 1-1s-.448-1-1-1h-3.82l.806-4.8355c.091-.5448-.277-1.06-.822-1.1508-.544-.0908-1.06.2772-1.15.822l-.861 5.1643h-4.973l.806-4.8355Zm3.167 10.8355.667-4h-4.973l-.667 4h4.973Z" fill="#B5BAC1"/></g><path d="M292.207 20.917h-33.501c-1.599 0-2.895 1.2564-2.895 2.8062s1.296 2.8061 2.895 2.8061h33.501c1.599 0 2.895-1.2563 2.895-2.8061 0-1.5498-1.296-2.8062-2.895-2.8062ZM305.444 28.5793c2.741 0 4.963-2.2253 4.963-4.9703s-2.222-4.9703-4.963-4.9703-4.964 2.2253-4.964 4.9703 2.223 4.9703 4.964 4.9703Z" fill="#000"/><path d="M434.692 210.41h-1.241v-79.318h1.241c.877 0 1.719.349 2.34.971.62.621.969 1.464.969 2.343v72.484c.001.899-.341 1.764-.956 2.419-.615.654-1.457 1.049-2.353 1.101Z" fill="#ACADBD"/></g><defs><linearGradient id="b" x1="162.626" y1="160.21" x2="162.626" y2="638.232" gradientUnits="userSpaceOnUse"><stop stop-color="#CCCFDE"/><stop offset=".58" stop-color="#D2D4E3"/><stop offset="1" stop-color="#DADCEB"/></linearGradient><linearGradient id="c" x1="208.475" y1="153.687" x2="208.475" y2="600.602" gradientUnits="userSpaceOnUse"><stop stop-color="#B6B9CC"/><stop offset=".55" stop-color="#BCBFD0"/><stop offset="1" stop-color="#C5C8D6"/></linearGradient><linearGradient id="h" x1="358.531" y1="128.339" x2="339.091" y2="178.359" gradientUnits="userSpaceOnUse"><stop stop-color="#FFC285"/><stop offset="1" stop-color="#DB8D6B"/></linearGradient><linearGradient id="i" x1="294.113" y1="157.718" x2="401.321" y2="157.718" gradientUnits="userSpaceOnUse"><stop stop-color="#D67569"/><stop offset="1" stop-color="#E39E7F"/></linearGradient><linearGradient id="l" x1="317.884" y1="308.585" x2="332.008" y2="303.237" gradientUnits="userSpaceOnUse"><stop stop-color="#61C7C7"/><stop offset="1" stop-color="#54B9C7"/></linearGradient><linearGradient id="n" x1="317.884" y1="444.678" x2="332.008" y2="439.331" gradientUnits="userSpaceOnUse"><stop stop-color="#61C7C7"/><stop offset="1" stop-color="#54B9C7"/></linearGradient><clipPath id="a"><path fill="#fff" d="M0 0h438v712H0z"/></clipPath><clipPath id="f"><path fill="#fff" transform="translate(131.01 16.6445)" d="M0 0h289.393v518.917H0z"/></clipPath><clipPath id="g"><path fill="#fff" transform="matrix(-1 0 0 1 420.402 95.9507)" d="M0 0h144.696v136.093H0z"/></clipPath><clipPath id="j"><path fill="#fff" transform="matrix(-1 0 0 1 275.706 95.9507)" d="M0 0h144.696v136.093H0z"/></clipPath><radialGradient id="d" cx="0" cy="0" r="1" gradientUnits="userSpaceOnUse" gradientTransform="matrix(93.9694 0 0 94.105 87.7438 150.042)"><stop offset=".51" stop-color="#A6A7BD"/><stop offset=".65" stop-color="#ACADC2"/><stop offset=".85" stop-color="#BBBDCF"/><stop offset="1" stop-color="#CCCFDE"/></radialGradient></defs></svg>