<svg width="531" height="49" fill="none" xmlns="http://www.w3.org/2000/svg">
<path d="m527.098 15.0977 3.603-1.5822c.088-.0879.088-.1758 0-.1758l-3.603-1.5821-1.67-3.69168c0-.08789-.088-.08789-.088 0l-1.67 3.60378-3.604 1.67c-.088 0-.088.0879 0 .1758l3.604 1.5822 1.67 3.6038h.088l1.67-3.6038Z" fill="#6ADBC6"/>
<path opacity=".5" d="m303.575 6.4 3.4-1.5v-.2l-3.4-1.4-1.5-3.3h-.2l-1.5 3.3-3.3 1.4c-.1.1-.1.2 0 .2l3.3 1.5 1.5 3.4h.2l1.5-3.4Z" fill="#9691FF"/>
<path d="m505.875 43.8621 5.075-2.2254c.032-.036.05-.0826.05-.1309 0-.0483-.018-.0949-.05-.1309l-5.075-2.2254-2.277-5.1052c-.013-.0139-.028-.0251-.044-.0327-.017-.0076-.036-.0116-.054-.0116-.018 0-.037.004-.054.0116-.016.0076-.031.0188-.044.0327l-2.277 5.0398-5.075 2.2908c-.032.036-.05.0826-.05.1309 0 .0483.018.0949.05.1309l5.075 2.2254 2.277 5.0397c.087.1309.152.1309.196 0l2.277-5.0397Z" fill="#628BF7"/>
<path d="m15.2764 34.15 7.7-3.4c.053 0 .1039-.0211.1414-.0586.0375-.0375.0586-.0884.0586-.1414 0-.053-.0211-.1039-.0586-.1414-.0375-.0375-.0884-.0586-.1414-.0586l-7.7-3.4c-.0265 0-.052-.0105-.0707-.0293-.0188-.0187-.0293-.0442-.0293-.0707l-3.5-7.7c0-.2-.2-.2-.3 0l-3.40001 7.7h-.1l-7.7999969 3.5C.0271976 30.405 0 30.4762 0 30.55s.0271976.145.0763931.2l7.7999969 3.4h.1l3.40001 7.8c.1.2.3.2.3 0l3.5-7.7c0-.0265.0105-.052.0293-.0707.0187-.0188.0442-.0293.0707-.0293Z" fill="#FF7ABC"/>
</svg>